<svg width="30" height="30" viewBox="0 0 30 30" fill="none" xmlns="http://www.w3.org/2000/svg">
<g clip-path="url(#clip0_21_18)">
<path d="M29.9708 28.039C29.9708 28.2732 29.8392 28.4878 29.5761 28.6829C29.3129 28.878 28.9084 29.039 28.3626 29.1659C27.8168 29.2927 27.2564 29.4098 26.6813 29.5171C26.1063 29.6244 25.3704 29.7073 24.4737 29.7659C23.577 29.8244 22.7973 29.8683 22.1345 29.8976C21.4718 29.9268 20.6189 29.9512 19.5761 29.9707C18.5332 29.9902 17.7437 30 17.2076 30L12.7924 30L10.424 29.9707L7.86555 29.8976L5.52637 29.7659L3.31877 29.5171L1.63748 29.1659L0.424034 28.6829L0.0292972 28.039C0.0682835 26.322 1.14041 24.8049 3.24567 23.4878C5.35093 22.1707 8.02149 21.2976 11.2574 20.8683L11.2574 19.9024C10.2437 19.4537 9.36652 18.8195 8.62578 18C7.88504 17.1805 7.30025 16.2195 6.8714 15.1171C6.44255 14.0146 6.13066 12.8341 5.93572 11.5756C5.74079 10.3171 5.64333 8.9561 5.64333 7.49268C5.64333 6.2439 5.88699 5.13171 6.37432 4.1561C6.86165 3.18049 7.53416 2.39512 8.39186 1.8C9.24956 1.20488 10.234 0.756097 11.3451 0.453658C12.4562 0.151219 13.6745 -1.62718e-07 15 -1.78524e-07C16.3256 -1.94331e-07 17.5439 0.151219 18.655 0.453658C19.7661 0.756097 20.7505 1.20488 21.6082 1.8C22.4659 2.39512 23.1384 3.18049 23.6258 4.1561C24.1131 5.13171 24.3568 6.2439 24.3568 7.49268C24.3568 14.322 22.4854 18.478 18.7427 19.961L18.7427 20.8683C21.9786 21.2976 24.6492 22.1707 26.7544 23.4878C28.8597 24.8049 29.9318 26.322 29.9708 28.039Z" fill="#182A88"/>
</g>
<defs>
<clipPath id="clip0_21_18">
<rect width="30" height="30" fill="white" transform="translate(30) rotate(90)"/>
</clipPath>
</defs>
</svg>
