<svg width="30" height="30" viewBox="0 0 30 30" fill="none" xmlns="http://www.w3.org/2000/svg">
<path d="M2.8125 4.5C2.06658 4.5 1.35121 4.79632 0.823762 5.32376C0.296316 5.85121 0 6.56658 0 7.3125L0 11.0625C0 11.8084 0.296316 12.5238 0.823762 13.0512C1.35121 13.5787 2.06658 13.875 2.8125 13.875L6.5625 13.875C7.30842 13.875 8.02379 13.5787 8.55124 13.0512C9.07868 12.5238 9.375 11.8084 9.375 11.0625L9.375 7.3125C9.375 6.56658 9.07868 5.85121 8.55124 5.32376C8.02379 4.79632 7.30842 4.5 6.5625 4.5H2.8125ZM14.0625 6.375C13.8139 6.375 13.5754 6.47377 13.3996 6.64959C13.2238 6.8254 13.125 7.06386 13.125 7.3125C13.125 7.56114 13.2238 7.7996 13.3996 7.97541C13.5754 8.15123 13.8139 8.25 14.0625 8.25L29.0625 8.25C29.3111 8.25 29.5496 8.15123 29.7254 7.97541C29.9012 7.7996 30 7.56114 30 7.3125C30 7.06386 29.9012 6.8254 29.7254 6.64959C29.5496 6.47377 29.3111 6.375 29.0625 6.375L14.0625 6.375ZM14.0625 10.125C13.8139 10.125 13.5754 10.2238 13.3996 10.3996C13.2238 10.5754 13.125 10.8139 13.125 11.0625C13.125 11.3111 13.2238 11.5496 13.3996 11.7254C13.5754 11.9012 13.8139 12 14.0625 12H25.3125C25.5611 12 25.7996 11.9012 25.9754 11.7254C26.1512 11.5496 26.25 11.3111 26.25 11.0625C26.25 10.8139 26.1512 10.5754 25.9754 10.3996C25.7996 10.2238 25.5611 10.125 25.3125 10.125H14.0625ZM2.8125 17.625C2.06658 17.625 1.35121 17.9213 0.823762 18.4488C0.296316 18.9762 0 19.6916 0 20.4375L0 24.1875C0 24.9334 0.296316 25.6488 0.823762 26.1762C1.35121 26.7037 2.06658 27 2.8125 27H6.5625C7.30842 27 8.02379 26.7037 8.55124 26.1762C9.07868 25.6488 9.375 24.9334 9.375 24.1875L9.375 20.4375C9.375 19.6916 9.07868 18.9762 8.55124 18.4488C8.02379 17.9213 7.30842 17.625 6.5625 17.625H2.8125ZM14.0625 19.5C13.8139 19.5 13.5754 19.5988 13.3996 19.7746C13.2238 19.9504 13.125 20.1889 13.125 20.4375C13.125 20.6861 13.2238 20.9246 13.3996 21.1004C13.5754 21.2762 13.8139 21.375 14.0625 21.375H29.0625C29.3111 21.375 29.5496 21.2762 29.7254 21.1004C29.9012 20.9246 30 20.6861 30 20.4375C30 20.1889 29.9012 19.9504 29.7254 19.7746C29.5496 19.5988 29.3111 19.5 29.0625 19.5L14.0625 19.5ZM14.0625 23.25C13.8139 23.25 13.5754 23.3488 13.3996 23.5246C13.2238 23.7004 13.125 23.9389 13.125 24.1875C13.125 24.4361 13.2238 24.6746 13.3996 24.8504C13.5754 25.0262 13.8139 25.125 14.0625 25.125H25.3125C25.5611 25.125 25.7996 25.0262 25.9754 24.8504C26.1512 24.6746 26.25 24.4361 26.25 24.1875C26.25 23.9389 26.1512 23.7004 25.9754 23.5246C25.7996 23.3488 25.5611 23.25 25.3125 23.25H14.0625Z" fill="#182A88"/>
</svg>
