<svg width="30" height="30" viewBox="0 0 30 30" fill="none" xmlns="http://www.w3.org/2000/svg">
<path d="M27.5 24.9999V15.2174C27.5001 14.5368 27.3612 13.8634 27.0919 13.2384C26.8226 12.6133 26.4285 12.0498 25.9337 11.5824L16.7175 2.87244C16.2533 2.4336 15.6388 2.18909 15 2.18909C14.3612 2.18909 13.7467 2.4336 13.2825 2.87244L4.06625 11.5824C3.57153 12.0498 3.17744 12.6133 2.90812 13.2384C2.6388 13.8634 2.49993 14.5368 2.5 15.2174L2.5 24.9999C2.5 25.663 2.76339 26.2989 3.23223 26.7677C3.70107 27.2365 4.33696 27.4999 5 27.4999L25 27.4999C25.663 27.4999 26.2989 27.2365 26.7678 26.7677C27.2366 26.2989 27.5 25.663 27.5 24.9999Z" stroke="#182A88" stroke-width="2" stroke-linecap="round" stroke-linejoin="round"/>
</svg>
